# xmcd
#
# Track frame offsets:
#	150
#	13810
#	30270
#	46274
#	58613
#	72610
#	89390
#	103659
#	121923
#	141415
#	160369
#	176939
#	191476
#	206506
#	220910
#	237653
#	253900
#
# Disc length: 3623 seconds
#
# Revision: 0
# Processed by: cddbd v1.5.2PL0 Copyright (c) Steve Scherf et al.
# Submitted via: audiograbber 1.83.01
#
DISCID=030e2511
DTITLE=Various Artist - American Heartland - CD 3
DYEAR=2013
DGENRE=Country
TTITLE0=The highwaymen - Highwayman
TTITLE1=The civil wars - Poison and wine
TTITLE2=Luke Bryan - Drunk on you
TTITLE3=Chris young - You
TTITLE4=Love and theft - Angel eyes
TTITLE5=Keith Whitley - When you say nothing at all
TTITLE6=Sheryl crow - Strong enough
TTITLE7=Kenny Chesnye - Somewhere with you
TTITLE8=Brad Paisley and Alison Krauss - Whiskey lullaby
TTITLE9=Miranda Lambert - Over
TTITLE10=Lissie - When i'm alone
TTITLE11=Jerrod Niemann - Lover, lover
TTITLE12=Adam Brand - There will be love
TTITLE13=Tate Stevens - Power of the love song
TTITLE14=Jessica Simpson - These boots are made for walking
TTITLE15=Train - Hey, soul sister
TTITLE16=Trisha Yearwood - How do i live
EXTD=
EXTT0=
EXTT1=
EXTT2=
EXTT3=
EXTT4=
EXTT5=
EXTT6=
EXTT7=
EXTT8=
EXTT9=
EXTT10=
EXTT11=
EXTT12=
EXTT13=
EXTT14=
EXTT15=
EXTT16=
PLAYORDER=
